<svg width="55" height="73" viewBox="0 0 55 73" fill="none" xmlns="http://www.w3.org/2000/svg">
<g clip-path="url(#clip0_136_116)">
<path d="M18.3582 0H2.22925C0.997666 0 0 0.930659 0 2.0798V17.1548C0 18.3011 0.997666 19.2346 2.22925 19.2346H18.3582C19.587 19.2346 20.5874 18.3011 20.5874 17.1548V2.0798C20.5874 0.930659 19.5898 0 18.3582 0ZM19.9928 16.7065C19.9928 17.7932 19.0543 18.6756 17.8932 18.6756H2.69426C1.53596 18.6756 0.594654 17.796 0.594654 16.7065V2.45149C0.594654 1.36762 1.53314 0.485191 2.69426 0.485191H17.8932C19.0515 0.485191 19.9928 1.36478 19.9928 2.45149V16.7065Z" fill="#168843"/>
<path d="M17.9496 0.488037H2.63791C1.47115 0.488037 0.521393 1.37046 0.521393 2.46285V16.7746C0.521393 17.8641 1.46833 18.7494 2.63791 18.7494H17.9524C19.1191 18.7494 20.0689 17.8641 20.0689 16.7746V2.46285C20.0661 1.37046 19.1191 0.488037 17.9496 0.488037ZM19.5024 16.349C19.5024 17.3818 18.609 18.2188 17.5099 18.2188H3.08038C1.97844 18.2188 1.08786 17.3818 1.08786 16.349V2.81469C1.08786 1.78472 1.98125 0.947692 3.08038 0.947692H17.5099C18.6118 0.947692 19.5024 1.78472 19.5024 2.81469V16.349Z" fill="#1E381E"/>
<path d="M12.5892 5.62935C12.5892 5.62368 12.5892 5.62368 12.5892 5.62368C12.5751 5.58395 12.5751 5.56409 12.5695 5.53004C12.5554 5.47897 12.5357 5.43641 12.5131 5.40236C12.5131 5.37682 12.499 5.35696 12.4878 5.32859C12.4878 5.32291 12.4737 5.32291 12.4737 5.30873C12.4539 5.269 12.4398 5.22928 12.4173 5.18956C12.2228 4.82921 11.9438 4.51994 11.6141 4.3043C11.5549 4.25322 11.4985 4.21634 11.4281 4.18229C11.2787 4.10284 11.1209 4.03475 10.9546 3.98651C10.9208 3.98084 10.8842 3.96665 10.8391 3.94679C10.7686 3.92693 10.7038 3.91841 10.6305 3.90423C10.4952 3.88437 10.36 3.87018 10.2162 3.87018C10.081 3.87018 9.94568 3.88437 9.80758 3.90423C9.73712 3.91841 9.66667 3.92409 9.59903 3.94679C9.55112 3.96381 9.51166 3.978 9.48348 3.98651C9.3172 4.03475 9.1622 4.10284 9.01001 4.18229C8.93955 4.21634 8.88319 4.25322 8.82682 4.3043C8.49427 4.51994 8.21808 4.82354 8.02362 5.18956C7.98416 5.26333 7.95034 5.32291 7.93062 5.40236C7.8968 5.4733 7.87143 5.53855 7.8517 5.62651C7.8517 5.62651 7.8517 5.62651 7.8517 5.63219C7.80379 5.85634 7.81789 6.10603 7.8517 6.37558C7.87143 6.62527 7.93907 6.89482 8.00389 7.10479C8.00953 7.13883 8.00953 7.16437 8.02362 7.18423L8.31672 7.98721L8.33081 8.00707L8.49991 8.18015C8.95365 8.61143 9.5483 8.87815 10.2134 8.87815C10.8813 8.87815 11.4844 8.61427 11.9354 8.18015L12.1073 8.00707C12.1129 8.0014 12.1129 8.0014 12.127 7.98721L12.2059 7.77157C12.2059 7.77157 12.22 7.75454 12.2257 7.7205L12.3327 7.4169C12.3525 7.35164 12.3919 7.26652 12.4117 7.18707L12.4314 7.10762C12.4906 6.89766 12.5582 6.63094 12.5808 6.37842C12.6287 6.10319 12.6343 5.8535 12.5892 5.62935ZM10.219 7.41122C9.62439 7.41122 9.12556 6.95724 9.05792 6.37274C9.04383 6.33018 9.04383 6.27911 9.04383 6.23087C9.04383 5.5726 9.57366 5.04485 10.2162 5.04485C10.8701 5.04485 11.3943 5.56977 11.3943 6.23087C11.3943 6.27911 11.3943 6.33302 11.3802 6.37274C11.3154 6.95724 10.8193 7.41122 10.219 7.41122Z" fill="#168843"/>
<path d="M12.592 6.37274C12.5695 6.62527 12.499 6.89198 12.4427 7.10195L12.4201 7.18139C12.3976 7.26084 12.3637 7.3488 12.3412 7.41122L12.2341 7.71482C12.2257 7.75171 12.2116 7.76589 12.2116 7.76589L12.1327 7.98153L10.219 13.2278L8.33363 8.00423L8.31954 7.98153L8.02644 7.18139C8.01235 7.15869 8.01235 7.13883 8.00389 7.10195C7.93907 6.89198 7.87425 6.62527 7.85452 6.37274H9.05792C9.12274 6.95724 9.62439 7.41122 10.219 7.41122C10.8222 7.41122 11.3154 6.95724 11.3802 6.37274H12.592Z" fill="#168843"/>
<path d="M10.2218 14.6976C11.2055 14.6976 12.003 14.5502 12.003 14.3684C12.003 14.1867 11.2055 14.0393 10.2218 14.0393C9.23815 14.0393 8.4407 14.1867 8.4407 14.3684C8.4407 14.5502 9.23815 14.6976 10.2218 14.6976Z" fill="#1E381E"/>
<path d="M35.699 42.5861C25.7646 39.78 21.3878 37.3824 21.3878 32.4908C21.3878 28.9043 25.1277 24.6483 34.9437 24.6483C38.3679 24.6483 41.3299 25.0852 43.7141 25.6272H43.7169C43.8156 25.6499 43.9142 25.6726 44.0129 25.6953L44.1876 25.7265L46.6141 26.2258C46.6226 26.2258 46.6226 26.2258 46.631 26.2258C46.6536 26.2429 46.6818 26.2429 46.7071 26.2429C46.724 26.2485 46.7409 26.2514 46.7579 26.2571C46.7973 26.2741 46.8283 26.2883 46.8593 26.2883C46.8678 26.2883 46.8762 26.2883 46.8875 26.2939H46.8988C46.9044 26.2939 46.91 26.2968 46.9157 26.2968C46.9185 26.2996 46.9213 26.2968 46.9213 26.2968C46.9326 26.2968 46.9467 26.2996 46.9608 26.2996C46.9833 26.3053 47.0115 26.3138 47.034 26.3195C47.0369 26.3138 47.0397 26.3195 47.0453 26.3195C47.0538 26.3223 47.0594 26.3223 47.0679 26.3251C47.0707 26.3251 47.0735 26.328 47.0791 26.328C47.0904 26.328 47.1017 26.3308 47.1101 26.3308C47.127 26.345 47.1411 26.345 47.1496 26.345C47.3074 26.3705 47.4652 26.4018 47.6061 26.4188C47.7442 26.4301 47.9021 26.4386 48.0683 26.4415H48.0712C48.1134 26.4443 48.1529 26.4443 48.1952 26.4443C48.3135 26.4443 48.446 26.4443 48.5813 26.4188H48.6264C48.6433 26.4188 48.663 26.4159 48.6799 26.4103H48.6912C48.6968 26.4074 48.7025 26.4074 48.7081 26.4046H48.7335C48.7363 26.4046 48.7391 26.4046 48.7447 26.4018H48.7475V26.3989C48.7475 26.3989 48.7504 26.3989 48.7504 26.3961C48.7532 26.3989 48.7532 26.4018 48.7532 26.4018H48.756V26.3989C48.756 26.3989 48.7588 26.3989 48.7588 26.3961C48.7616 26.3989 48.7616 26.4018 48.7616 26.4018L48.7645 26.3989C48.7645 26.3989 48.7673 26.3989 48.7673 26.3961C48.7701 26.3989 48.7701 26.4018 48.7701 26.4018C48.7701 26.4018 48.7701 26.3989 48.7729 26.3961C48.7757 26.3989 48.7757 26.4018 48.7757 26.4018C48.7785 26.4018 48.7814 26.3989 48.7814 26.3961C48.787 26.3961 48.7926 26.3961 48.7983 26.3932C48.8039 26.3932 48.8096 26.3904 48.8152 26.3876C48.8716 26.3876 48.9336 26.3705 48.9899 26.362V26.3592L48.9956 26.345L49.3112 25.6527L49.8523 24.4894V24.4865H49.8551V24.4809L49.8918 24.4014V24.3986L50.0101 24.1404C50.0101 24.1404 50.013 24.1404 50.013 24.1375L51.1825 21.6236C50.757 21.4534 50.3004 21.2775 49.8213 21.1242H49.8129C49.7959 21.1157 49.7818 21.1101 49.7649 21.1044C49.7424 21.0959 49.7198 21.0845 49.6945 21.0788C49.6719 21.0703 49.6494 21.0618 49.624 21.0533C49.5057 21.0136 49.3873 20.9739 49.2633 20.9341C49.0406 20.8632 48.8067 20.7951 48.5672 20.7242C48.477 20.6958 48.384 20.6703 48.291 20.6419C48.2262 20.6249 48.1642 20.605 48.0993 20.588C48.0824 20.5823 48.0655 20.5766 48.0486 20.571C47.9669 20.5511 47.8767 20.5312 47.795 20.5057H47.7865C47.6907 20.4802 47.5977 20.4546 47.5019 20.4291C47.4737 20.4177 47.4455 20.4121 47.4173 20.4007C47.3384 20.3808 47.2567 20.3638 47.175 20.344C47.113 20.3581 47.0453 20.3695 46.9749 20.3723C46.879 20.3837 46.7776 20.3837 46.6677 20.378C46.6564 20.378 46.6451 20.3752 46.631 20.3752C46.4478 20.3638 46.2421 20.3326 46.0138 20.2787C46.0138 20.2787 46.011 20.2787 46.011 20.2759C46.0082 20.2759 46.0054 20.273 45.9997 20.2702H45.9969C45.9969 20.273 45.9941 20.273 45.9913 20.273C45.9744 20.2674 45.9518 20.2645 45.9293 20.2588C45.8532 20.2447 45.763 20.2248 45.6587 20.2049C45.0753 20.0914 44.058 19.9098 42.7503 19.751C42.3388 19.7339 41.9076 19.7197 41.4567 19.7112C41.3609 19.7084 41.2651 19.7056 41.1664 19.7027C40.941 19.697 40.707 19.6942 40.4703 19.6942C39.6953 19.6914 38.8808 19.7027 38.041 19.7368H38.0381C37.5224 19.7538 37.0038 19.7822 36.474 19.819C36.2542 19.8361 36.0343 19.8503 35.8117 19.8701C35.5891 19.89 35.3664 19.9127 35.1438 19.9325C34.9747 19.9467 34.8056 19.9694 34.6337 19.9893C34.5519 19.995 34.4674 20.0035 34.3857 20.0148C25.1953 21.0959 18.423 24.3021 16.1881 25.4739C16.1853 25.4739 16.1853 25.4739 16.1853 25.4739C16.1797 25.4768 16.1768 25.4796 16.1712 25.4824C16.0867 25.5534 16.0049 25.6215 15.9232 25.6953C15.8133 25.7917 15.7062 25.8882 15.5991 25.9847C15.4779 26.0953 15.3595 26.2088 15.2412 26.3223C15.1144 26.4443 14.9904 26.5663 14.8692 26.694C14.8325 26.7309 14.7987 26.7649 14.7649 26.8018C14.6381 26.9323 14.5169 27.0657 14.3957 27.2019C14.0716 27.5679 13.7616 27.9481 13.4713 28.3482C12.9246 29.276 12.468 30.2861 12.1777 31.3558C12.0622 31.9744 12.003 32.5986 12.003 33.2483C12.003 40.6312 19.2572 45.049 31.015 48.0821C35.482 49.3419 38.7089 50.6074 40.8902 52.0885C40.8902 52.0885 40.924 52.1112 40.986 52.1566C41.4426 52.4687 41.8512 52.7922 42.2148 53.1298C42.2204 53.1355 42.2261 53.1384 42.2317 53.144C42.4487 53.3426 42.646 53.5469 42.8292 53.7569C42.832 53.7569 42.832 53.7569 42.832 53.7569C42.8433 53.7682 42.8545 53.7824 42.863 53.7938C42.8658 53.7995 42.8715 53.8051 42.8771 53.8108C43.3083 54.3045 43.6521 54.8238 43.9114 55.3742C44.3595 56.3134 44.5709 57.3433 44.5709 58.4868C44.5709 59.2756 44.4469 60.0247 44.2017 60.7312C44.2017 60.7312 44.1932 60.7567 44.1707 60.8447C43.793 62.0534 39.5177 73.0567 12.6653 69.4618C13.6855 70.2647 15.399 71.2153 18.206 71.882C18.268 71.8962 18.3215 71.9076 18.3779 71.9218C18.6597 71.9785 18.9585 72.0353 19.2657 72.109C19.3361 72.1232 19.4066 72.1374 19.4855 72.1544C19.7053 72.18 19.942 72.2254 20.176 72.2679C20.4352 72.3077 20.6889 72.3559 20.9313 72.3956C21.1285 72.4268 21.3258 72.4524 21.5287 72.4836C21.788 72.5261 22.0473 72.5715 22.3066 72.5971C24.4682 72.8553 26.7002 73 28.8703 73C32.4157 73 35.5834 72.6964 38.3707 72.1374C42.6375 71.2862 46.0195 69.8448 48.5362 68.009C52.2478 65.3022 54.0741 61.7356 54.0741 57.925C54.0741 50.2527 47.8739 45.9825 35.699 42.5861Z" fill="#168843"/>
<path d="M52.3916 19.192C52.3634 18.721 52.3239 18.2557 52.2704 17.8017C52.152 16.7859 51.9632 15.8184 51.6955 14.9047C51.6926 14.8905 51.687 14.8792 51.6842 14.865C51.1008 13.1257 50.2722 11.8404 49.376 10.8927C49.1872 10.7168 48.9927 10.5607 48.7955 10.4132H48.7926C48.6827 10.3422 48.5728 10.2741 48.4601 10.206C48.1219 10.0017 47.7668 9.81164 47.3948 9.63289C47.1468 9.51372 46.8931 9.40306 46.631 9.29524C46.3689 9.18742 46.104 9.08527 45.8278 8.9888C45.4135 8.84126 44.988 8.7079 44.5512 8.58589C44.2581 8.50645 43.9593 8.42984 43.6578 8.35607C43.5056 8.31918 43.3506 8.28513 43.1984 8.25108C42.739 8.15178 42.2655 8.06098 41.7836 7.9787H41.7808C41.4623 7.92479 41.1354 7.87655 40.8085 7.82832C40.4759 7.78292 40.1434 7.74036 39.8052 7.70347C39.4698 7.66658 39.1316 7.63254 38.7906 7.60416C28.146 6.67634 14.7818 9.37185 12.406 9.8769V9.92797C12.406 9.92797 12.4088 9.92797 12.4173 9.93649C12.4201 9.93649 12.4257 9.93932 12.4286 9.945C12.437 9.95918 12.4426 9.95918 12.4511 9.95918L12.4596 9.9677V9.97053C12.4708 9.97337 12.4793 9.97905 12.4906 9.98472C12.5159 9.99891 12.5413 10.0159 12.5751 10.0386C12.5892 10.05 12.6061 10.0613 12.6258 10.0727C12.6878 10.1124 12.7414 10.1436 12.8062 10.1862C12.809 10.1862 12.8147 10.189 12.8231 10.1947C12.8287 10.2004 12.8372 10.2032 12.8457 10.2032C12.9725 10.277 13.1078 10.3451 13.2515 10.4132C13.2994 10.4359 13.3473 10.4586 13.398 10.4813C13.5446 10.5494 13.7024 10.6146 13.8659 10.677C13.9222 10.6997 13.9758 10.7196 14.0321 10.7423C14.2351 10.8189 14.4436 10.8927 14.6663 10.9636C14.8861 11.0374 15.1172 11.1055 15.3539 11.1736C15.4723 11.2076 15.5935 11.2417 15.7175 11.2729C15.9655 11.341 16.2191 11.4034 16.484 11.4658C16.6813 11.5112 16.8842 11.5566 17.0871 11.602C17.2957 11.6474 17.5042 11.69 17.7184 11.7325C18.0031 11.7893 18.2934 11.8432 18.5921 11.8971C18.7387 11.9226 18.8908 11.951 19.0402 11.9766C19.3446 12.0276 19.6518 12.0759 19.9674 12.1241C20.1224 12.1496 20.2831 12.1723 20.4409 12.195C20.6523 12.2262 20.8664 12.2546 21.0834 12.2858C21.5175 12.3426 21.9571 12.3993 22.4024 12.4532C22.625 12.4816 22.8505 12.5071 23.076 12.5327C23.5297 12.5838 23.9863 12.632 24.4456 12.6774H26.3142C26.3142 12.6774 26.7228 12.6774 27.3907 12.6519C27.7825 12.6377 28.2616 12.6121 28.7999 12.5752C28.8788 12.5696 28.9549 12.5639 29.0366 12.5582C29.1944 12.544 29.3579 12.5327 29.5242 12.5185C29.6933 12.5043 29.8623 12.4873 30.0371 12.4703C30.2118 12.4532 30.3894 12.4334 30.5697 12.4135C30.705 12.3993 30.8403 12.3823 30.9784 12.3653C31.3927 12.317 31.8154 12.2575 32.241 12.1894C32.2691 12.1894 32.3001 12.1865 32.3283 12.178C32.3565 12.1723 32.3847 12.1638 32.4129 12.1582C32.6045 12.1213 32.7962 12.0844 32.9822 12.0503C33.1682 12.0163 33.3542 11.9851 33.5374 11.9567C33.5515 11.9567 33.5684 11.9539 33.5796 11.9482C33.5937 11.9425 33.605 11.9397 33.6163 11.9397C33.7431 11.9141 33.8671 11.8971 33.9939 11.8829C38.7934 11.1083 42.7869 11.1934 45.2219 12.9129C45.2219 12.9129 45.2247 12.9129 45.2275 12.9157C45.298 12.9526 46.135 13.4208 46.9354 14.7884V14.7912C47.251 15.3275 47.5554 16.0028 47.8034 16.8483C47.8034 16.8512 47.8063 16.854 47.8063 16.8568C47.8063 16.8625 47.8091 16.8682 47.8119 16.8767C47.8119 16.8767 47.8119 16.8767 47.8147 16.8795C47.8175 16.8795 47.8175 16.8824 47.8175 16.8852C47.8175 16.8852 47.8175 16.8852 47.8175 16.8881C47.8232 16.9051 47.8288 16.9249 47.8344 16.9448C47.8823 17.0838 47.9303 17.2257 47.9725 17.3704C47.9838 17.4073 47.9951 17.4442 48.0035 17.4782C48.0402 17.6087 48.074 17.7393 48.1022 17.8698C48.105 17.884 48.1078 17.901 48.1106 17.9152C48.1275 17.9833 48.1416 18.0514 48.1529 18.1223C48.1529 18.1223 48.1557 18.1337 48.1585 18.1592C48.1614 18.1649 48.1642 18.1734 48.1642 18.1847C48.1642 18.1876 48.1642 18.1876 48.1642 18.1904C48.167 18.1932 48.167 18.1932 48.167 18.1961C48.167 18.1961 48.167 18.1989 48.167 18.2018C48.1698 18.2046 48.1698 18.2046 48.1698 18.2074C48.1726 18.2245 48.1754 18.2443 48.1783 18.2613C48.1839 18.2982 48.1895 18.3323 48.1924 18.3692C48.1924 18.3777 48.1952 18.3834 48.1952 18.3919C48.2036 18.4685 48.2121 18.5422 48.2177 18.616C48.2234 18.6756 48.2234 18.738 48.2234 18.8004C48.229 19.087 48.1923 19.3481 48.1022 19.5665C48.0993 19.5751 48.0965 19.5836 48.0909 19.5921C48.0796 19.6261 48.0655 19.6602 48.0486 19.6914C48.0486 19.7084 48.0514 19.7226 48.0543 19.7425C48.0543 19.7481 48.0543 19.7481 48.0543 19.751V19.7538C48.074 19.9723 48.0881 20.1851 48.0937 20.4064C48.0937 20.4064 48.0937 20.4064 48.0937 20.4092C48.0937 20.4092 48.0937 20.4092 48.0937 20.4121C48.0965 20.4688 48.0993 20.5312 48.0993 20.588C48.1078 20.8036 48.1163 21.0363 48.1163 21.2519C48.1163 21.4789 48.1134 21.7031 48.105 21.9244C48.0965 22.1769 48.0796 22.4238 48.0599 22.6621V22.6763C48.0233 23.1785 47.9584 23.6637 47.8795 24.1149V24.1262C47.8739 24.2142 47.857 24.2964 47.8344 24.3844V24.3901C47.826 24.4014 47.826 24.4014 47.826 24.4014C47.7386 24.9207 47.6287 25.3973 47.5047 25.823L47.5357 25.84L48.0993 26.0414L48.1952 26.0755L48.5559 26.2003L48.9956 26.345L49.035 26.3621C49.1449 26.3394 49.2577 26.3081 49.3704 26.2713C49.4296 26.2514 49.4916 26.2315 49.5536 26.2088C49.5987 26.1918 49.6409 26.1748 49.6832 26.1578C49.7706 26.1209 49.8551 26.0783 49.9397 26.0358C49.9819 26.0131 50.0242 25.9904 50.0665 25.9677C50.0693 25.9677 50.075 25.9648 50.0806 25.9591C50.0862 25.9563 50.0947 25.9535 50.0975 25.9535C50.106 25.9478 50.1116 25.945 50.1172 25.9421C50.1229 25.9364 50.1285 25.9336 50.137 25.9279C50.1426 25.9279 50.1426 25.9279 50.1482 25.9279C50.151 25.9279 50.1539 25.9251 50.1567 25.9251C50.1595 25.9251 50.1623 25.9251 50.1623 25.9223L50.1651 25.9166C50.1651 25.9166 50.1651 25.9166 50.168 25.9137C50.168 25.9137 50.168 25.9137 50.1708 25.9109H50.182C50.1849 25.9109 50.1849 25.9109 50.1849 25.9109H50.1877V25.9081C50.1877 25.9081 50.1877 25.9052 50.1905 25.9081V25.9052L50.199 25.8967C50.2018 25.891 50.2074 25.8882 50.2102 25.8854C50.2131 25.8854 50.2159 25.8854 50.2187 25.8825C50.2187 25.8797 50.2187 25.8797 50.2243 25.8769C50.2441 25.8598 50.2638 25.8457 50.2807 25.8286C50.3371 25.7861 50.385 25.7492 50.4357 25.7095C50.4385 25.7095 50.4385 25.7095 50.4413 25.7095H50.4441C50.447 25.7066 50.447 25.7066 50.4498 25.7066H50.4526C50.4611 25.7009 50.4695 25.6953 50.4752 25.6953V25.6868L50.478 25.6839H50.4808C50.5371 25.6385 50.5766 25.5818 50.6386 25.5392L50.6414 25.5364V25.5335C50.6499 25.5222 50.6555 25.5137 50.664 25.5052C50.6696 25.4995 50.6724 25.4938 50.6781 25.491C50.6809 25.4881 50.6865 25.4825 50.695 25.4796C50.7344 25.4456 50.7711 25.4115 50.8049 25.3775C50.9092 25.2753 51.0078 25.1618 51.1036 25.0342C51.1121 25.0228 51.1205 25.0143 51.1262 25.0058L51.1346 24.9973C51.1374 24.9916 51.1431 24.9888 51.1459 24.9859C51.1515 24.9774 51.1572 24.9689 51.1656 24.9604C51.1825 24.9405 51.1966 24.9207 51.2107 24.9008C51.2164 24.8895 51.222 24.8809 51.2276 24.8724C51.2304 24.8639 51.2389 24.8526 51.2445 24.8441C51.2445 24.8412 51.2445 24.8384 51.2502 24.8355C51.2502 24.8355 51.2502 24.8327 51.253 24.8327C51.2586 24.827 51.2643 24.8214 51.2699 24.8128C51.2784 24.8015 51.284 24.7901 51.2868 24.7816C51.2896 24.7731 51.2953 24.7646 51.3009 24.7561C51.3037 24.7476 51.3094 24.7391 51.315 24.7306H51.3206C51.3375 24.6994 51.3544 24.671 51.3714 24.6426C51.3742 24.6398 51.377 24.6369 51.377 24.6313H51.3798C51.3939 24.6142 51.4024 24.6 51.4165 24.5745V24.566C51.4277 24.5433 51.439 24.5234 51.4475 24.5036V24.5007C51.4531 24.4951 51.4559 24.4894 51.4587 24.4837C51.4615 24.4809 51.4615 24.4809 51.4615 24.4809C51.4615 24.4809 51.4615 24.4809 51.4615 24.478V24.4752C51.4644 24.4724 51.4672 24.4724 51.4644 24.4695C51.4672 24.4667 51.47 24.4667 51.47 24.4639C51.4728 24.4582 51.4756 24.4553 51.4785 24.4525V24.4497C51.4869 24.4355 51.4925 24.427 51.4954 24.4156C51.4954 24.4156 51.4954 24.4156 51.4954 24.4128V24.3986C51.4982 24.3929 51.5038 24.3872 51.5095 24.3816C51.5123 24.3787 51.5151 24.3759 51.5179 24.3702C51.5179 24.3674 51.5207 24.3674 51.5207 24.3645C51.5207 24.3617 51.5235 24.3617 51.5235 24.3589L51.5743 24.2567C51.5743 24.2567 51.5743 24.2539 51.5771 24.2539C51.5912 24.2198 51.6081 24.1886 51.625 24.1574V24.1546C51.6306 24.1376 51.6391 24.1234 51.6475 24.1063C51.6532 24.0978 51.6588 24.0893 51.6616 24.0836C51.6616 24.0836 51.6616 24.0751 51.6673 24.0609V24.0581C51.6673 24.0553 51.6673 24.0553 51.6673 24.0553V24.0524C51.6842 24.0184 51.6983 23.9872 51.7095 23.956C51.7744 23.7971 51.8138 23.6836 51.8223 23.6552L51.8251 23.6495C52.4395 21.913 52.4085 19.7566 52.3916 19.192Z" fill="#168843"/>
<path d="M50.2948 19.0586C50.3201 19.3906 50.0919 20.2503 49.8157 21.1186C49.8157 21.1186 49.8157 21.1242 49.8128 21.1242C49.4775 22.2166 49.0773 23.275 49.0773 23.275C49.0773 23.275 48.9195 23.1899 48.6658 23.0395C48.4995 22.943 48.2938 22.8153 48.0627 22.6706H48.0599C48.012 22.6394 47.9641 22.611 47.9162 22.5798C47.6033 22.3812 47.2595 22.1627 46.9298 21.9386C46.7917 21.8478 46.6592 21.7485 46.5296 21.652C46.5296 21.6492 46.5267 21.6492 46.5267 21.6492H46.5239C46.5155 21.6492 46.5155 21.6492 46.5155 21.6492C46.1688 21.391 45.8588 21.1328 45.6531 20.9086C45.3318 20.5653 45.2613 20.2929 45.6587 20.2049C45.763 20.2248 45.8532 20.2447 45.9293 20.2588C45.9518 20.2645 45.9744 20.2674 45.9913 20.273C45.9941 20.273 45.9969 20.273 45.9969 20.2702H45.9997C46.0054 20.273 46.0082 20.2759 46.011 20.2759C46.011 20.2787 46.0138 20.2787 46.0138 20.2787C46.2421 20.3326 46.4478 20.3638 46.631 20.3752C46.6451 20.3752 46.6564 20.378 46.6677 20.378C46.7776 20.3837 46.879 20.3837 46.9749 20.3723C47.0453 20.3695 47.113 20.3582 47.175 20.344C47.2736 20.3269 47.361 20.3014 47.4427 20.2674V20.2645C47.4596 20.2617 47.4737 20.256 47.4878 20.2475C47.5695 20.2106 47.6428 20.1681 47.7076 20.1141C47.8542 20.0063 47.9641 19.8645 48.0402 19.7084C48.043 19.7027 48.0458 19.697 48.0486 19.6914C48.0655 19.6602 48.0796 19.6261 48.0909 19.5921C48.0965 19.5836 48.0993 19.575 48.1022 19.5665C48.1923 19.3481 48.229 19.087 48.2233 18.8004C48.2233 18.738 48.2233 18.6756 48.2177 18.616C48.2121 18.5422 48.2036 18.4685 48.1952 18.3919C48.1952 18.3833 48.1923 18.3777 48.1923 18.3692C48.1895 18.3323 48.1839 18.2982 48.1783 18.2613C48.1754 18.2443 48.1726 18.2245 48.1698 18.2074C48.1698 18.2046 48.1698 18.2046 48.167 18.2018C48.167 18.1989 48.167 18.1961 48.167 18.1961C48.167 18.1932 48.167 18.1932 48.1642 18.1904C48.1642 18.1876 48.1642 18.1876 48.1642 18.1847C48.1642 18.1734 48.1613 18.1649 48.1585 18.1592C48.1557 18.1337 48.1529 18.1223 48.1529 18.1223C48.1416 18.0514 48.1275 17.9833 48.1106 17.9152C48.1078 17.901 48.105 17.884 48.1022 17.8698C48.074 17.7393 48.0402 17.6087 48.0035 17.4782C47.9951 17.4442 47.9838 17.4073 47.9725 17.3704C47.9302 17.2257 47.8823 17.0838 47.8344 16.9448C47.8288 16.9249 47.8232 16.9051 47.8175 16.888C47.8175 16.8852 47.8175 16.8852 47.8175 16.8852C47.8175 16.8824 47.8175 16.8795 47.8147 16.8795C47.8119 16.8767 47.8119 16.8767 47.8119 16.8767C47.8091 16.8682 47.8062 16.8625 47.8062 16.8568C47.8062 16.854 47.8034 16.8512 47.8034 16.8483C47.5554 16.0028 47.251 15.3275 46.9354 14.7912C47.313 14.533 47.8147 14.2096 48.2205 13.9996C48.2205 13.9996 48.2205 13.9968 48.2233 13.9968C48.3051 13.9542 48.3812 13.9173 48.4544 13.8861C48.4544 13.8861 48.4544 13.8833 48.4573 13.8833C48.6658 13.7953 48.8293 13.7584 48.8969 13.8095C48.9025 13.8123 48.9082 13.818 48.911 13.8237C48.9364 13.8464 48.9589 13.8861 48.9815 13.9372C48.9956 13.9627 49.0096 13.9911 49.0237 14.0223C49.0519 14.0876 49.0829 14.1642 49.1139 14.255C49.1308 14.2975 49.1449 14.3429 49.1618 14.3912C49.4549 15.248 49.8636 16.8455 50.1003 17.9577H50.1031C50.2102 18.4656 50.2835 18.8714 50.2948 19.0586Z" fill="#168843"/>
<path d="M50.478 25.6754C50.478 25.6754 50.4667 25.6868 50.4442 25.7095H50.4413C50.4188 25.7322 50.3822 25.7634 50.3371 25.7974C50.3032 25.823 50.2666 25.8513 50.2243 25.8769C50.2187 25.8797 50.2187 25.8797 50.2187 25.8825C50.2131 25.8882 50.2046 25.8939 50.199 25.8967L50.1905 25.9052C50.1877 25.9052 50.1849 25.9052 50.1821 25.9109H50.1792C50.1736 25.9166 50.168 25.9194 50.1623 25.9223C50.1623 25.9251 50.1595 25.9251 50.1567 25.9251C50.1172 25.9506 50.075 25.979 50.0271 26.0046C49.9059 26.0726 49.7593 26.1464 49.5874 26.2117C49.4972 26.2486 49.4014 26.2826 49.2971 26.311C49.2492 26.3252 49.2013 26.3365 49.1534 26.3479C49.0858 26.3649 49.0181 26.3791 48.9448 26.3933H48.9336C48.9307 26.3933 48.9307 26.3933 48.9279 26.3933C48.8462 26.4103 48.7616 26.4216 48.6715 26.433C48.6207 26.4415 48.5672 26.4443 48.5136 26.4472C48.477 26.4529 48.4404 26.4529 48.4009 26.4557C48.2938 26.4614 48.1811 26.4614 48.0627 26.4585C47.7781 26.4529 47.4652 26.4188 47.1242 26.345C47.0566 26.3308 46.9918 26.3167 46.9213 26.2968C46.9213 26.2968 46.9185 26.2996 46.9157 26.2968C46.8255 26.2741 46.7297 26.2486 46.6339 26.2202C44.4976 25.5818 46.896 24.4979 47.8795 24.1149C48.0853 24.0354 48.229 23.9872 48.2572 23.9787C48.3079 23.9673 48.4432 23.9616 48.6095 23.9588C49.0097 23.956 49.5874 23.9787 49.5874 23.9787L49.7509 24.2908V24.2936H49.7537L49.7734 24.3305L49.8523 24.4837V24.4866H49.8551L50.0101 24.7816L50.2497 25.2385L50.478 25.6754Z" fill="#168843"/>
<path d="M51.8307 23.6495C51.8307 23.6495 51.8307 23.6524 51.8279 23.658C51.8251 23.6666 51.8195 23.6864 51.8082 23.7148C51.7941 23.7545 51.7716 23.8169 51.7406 23.8907C51.7208 23.9389 51.6955 23.9957 51.6673 24.0553C51.6673 24.0553 51.6673 24.0553 51.6673 24.0581V24.061C51.656 24.0922 51.6391 24.1205 51.625 24.1546V24.1574C51.6081 24.1886 51.5912 24.2199 51.5771 24.2539C51.5743 24.2539 51.5743 24.2567 51.5743 24.2567C51.5574 24.2908 51.5405 24.3248 51.5236 24.3589C51.5236 24.3617 51.5207 24.3617 51.5207 24.3646C51.5207 24.3674 51.5179 24.3674 51.5179 24.3702C51.5151 24.3759 51.5123 24.3787 51.5095 24.3816C51.5066 24.3901 51.501 24.3986 51.4982 24.4071C51.4982 24.4071 51.4982 24.4071 51.4954 24.4071V24.4128C51.4926 24.4156 51.4926 24.4156 51.4926 24.4185C51.4926 24.4213 51.4897 24.4241 51.4869 24.4298C51.4841 24.4355 51.4813 24.4412 51.4756 24.4497C51.47 24.4582 51.4672 24.4639 51.4644 24.4695C51.4616 24.4724 51.4616 24.4752 51.4616 24.4752C51.4587 24.4781 51.4587 24.478 51.4587 24.478C51.4559 24.4866 51.4503 24.4951 51.4475 24.5007C51.408 24.5717 51.3657 24.6455 51.3206 24.7192C51.3206 24.7221 51.3178 24.7277 51.315 24.7306C51.2586 24.8185 51.1995 24.9065 51.1346 24.9973C51.1318 25.0001 51.129 25.003 51.1262 25.0058C51.0783 25.0767 51.0275 25.1448 50.9712 25.2158C50.9035 25.2981 50.8331 25.3803 50.7598 25.4598C50.7288 25.4967 50.695 25.5307 50.6583 25.5648C50.6583 25.5648 50.6555 25.5648 50.6555 25.5676C50.6527 25.5704 50.6471 25.5733 50.6443 25.579C50.6358 25.5875 50.6273 25.596 50.6161 25.6073C50.5851 25.6329 50.5541 25.6641 50.5231 25.6924C50.5062 25.7066 50.4893 25.7237 50.4695 25.7378C50.4639 25.7435 50.4611 25.7464 50.4554 25.752C50.447 25.7577 50.4357 25.7662 50.4272 25.7747C50.4244 25.7804 50.4188 25.7832 50.4132 25.7861C50.4132 25.7861 50.4132 25.7889 50.4103 25.7861V25.7889C50.4075 25.7918 50.4019 25.7946 50.3963 25.8003C50.3342 25.8513 50.2694 25.8996 50.2018 25.9421C50.168 25.9677 50.1341 25.9904 50.0975 26.0102C49.9594 26.0982 49.8129 26.172 49.6579 26.2315C49.6071 26.2542 49.5536 26.2713 49.5 26.2855V26.2883H49.4972C49.4916 26.2911 49.4831 26.294 49.4747 26.2968C49.4324 26.3082 49.3901 26.3195 49.3479 26.3309C49.345 26.3309 49.3394 26.3309 49.3366 26.3337C49.2971 26.3422 49.2577 26.3507 49.2182 26.3564C49.1759 26.3649 49.1308 26.3734 49.0886 26.3791C49.0407 26.3848 48.9928 26.3904 48.9448 26.3933H48.9336C48.9308 26.3933 48.9308 26.3933 48.9279 26.3933C48.8744 26.399 48.8237 26.4018 48.7757 26.4018C48.7729 26.4018 48.7729 26.4018 48.7701 26.4018H48.7617C48.7588 26.4018 48.7588 26.4018 48.756 26.4018H48.7532C48.7504 26.4018 48.7476 26.4046 48.7447 26.4018C48.7391 26.4046 48.7363 26.4046 48.7335 26.4046H48.7081C48.5841 26.4046 48.4826 26.3961 48.4009 26.3848C48.3474 26.3763 48.2995 26.3649 48.2628 26.3507C48.2431 26.3422 48.2262 26.3365 48.2093 26.328C48.1924 26.3195 48.1783 26.311 48.1642 26.2996C48.1529 26.2911 48.1388 26.2826 48.1304 26.2713C48.0712 26.2117 48.0684 26.1322 48.0994 26.0414C48.1304 25.9478 48.2036 25.8457 48.2938 25.7407V25.7378C48.3333 25.6924 48.3727 25.6499 48.4206 25.6045L48.4686 25.5563C48.6968 25.3378 48.9646 25.1306 49.0942 25.0228C49.1421 24.9859 49.1731 24.9576 49.1759 24.9491V24.9462C49.2041 24.881 49.4944 24.5745 49.7734 24.3305C49.7847 24.322 49.7931 24.3135 49.8044 24.305C49.8044 24.3021 49.8072 24.3021 49.8101 24.2993C49.8129 24.2993 49.8129 24.2993 49.8129 24.2993V24.2965C49.8805 24.2397 49.9481 24.1858 50.0101 24.1404C50.0101 24.1404 50.013 24.1404 50.013 24.1376C50.0355 24.1262 50.0524 24.112 50.0721 24.0978C50.1229 24.0666 50.199 24.0326 50.2948 24.0014C50.3145 23.9929 50.3342 23.9872 50.354 23.9815C50.3737 23.973 50.3962 23.9673 50.416 23.9616C50.5963 23.9049 50.8162 23.851 51.0275 23.8056C51.067 23.7971 51.1065 23.7886 51.1459 23.7801C51.1713 23.7744 51.1966 23.7687 51.2192 23.7659C51.2671 23.7545 51.315 23.746 51.3601 23.7375C51.6025 23.6893 51.7913 23.6552 51.8251 23.6495C51.8279 23.6495 51.8307 23.6495 51.8307 23.6495Z" fill="#168843"/>
<path d="M50.6555 25.5676V25.5704C50.6527 25.5732 50.6499 25.5761 50.6471 25.5789C50.6471 25.5789 50.6471 25.5789 50.6442 25.5789C50.6414 25.5818 50.6358 25.5874 50.6302 25.5959C50.6245 25.5988 50.6217 25.6016 50.6161 25.6073C50.6132 25.6101 50.6132 25.6101 50.6104 25.6158C50.5879 25.6357 50.5597 25.664 50.5231 25.6924C50.5062 25.7066 50.4892 25.7236 50.4695 25.7378C50.4639 25.7435 50.4611 25.7463 50.4554 25.752C50.447 25.7577 50.4357 25.7662 50.4272 25.7747C50.4216 25.7747 50.4188 25.7804 50.4131 25.786C50.4131 25.786 50.4131 25.7889 50.4103 25.786C50.3962 25.7974 50.3821 25.8087 50.3652 25.8201C50.3624 25.8201 50.3624 25.8229 50.3596 25.8229C50.1651 25.9705 49.8749 26.1492 49.5 26.2854V26.2883H49.4972C49.4916 26.2911 49.4831 26.2939 49.4747 26.2968C49.469 26.2996 49.4634 26.2996 49.4578 26.3024C49.4014 26.3223 49.3422 26.3422 49.283 26.3592C49.2126 26.3819 49.1421 26.3989 49.066 26.4159C49.0604 26.4188 49.0576 26.4188 49.0519 26.4188C48.9843 26.4358 48.9166 26.4471 48.8462 26.4585C48.7447 26.4755 48.6405 26.4897 48.5305 26.4954C48.4432 26.5039 48.3502 26.5067 48.2572 26.5067C48.1895 26.5067 48.1191 26.5039 48.0458 26.5011C47.826 26.4897 47.5921 26.4613 47.3469 26.4046C47.2651 26.3876 47.1919 26.3649 47.1242 26.345C47.1073 26.3393 47.0932 26.3337 47.0791 26.328C47.0735 26.328 47.0707 26.3251 47.0679 26.3251C45.8786 25.8967 47.144 24.8724 47.8344 24.3844C48.0514 24.2312 48.2093 24.1319 48.2234 24.1177C48.2403 24.0978 48.3896 24.1092 48.5925 24.1319C48.9815 24.1772 49.5648 24.2709 49.7509 24.2936H49.7537C49.7819 24.2964 49.7988 24.2993 49.8072 24.2993H49.81C49.8129 24.2993 49.8129 24.2993 49.8129 24.2993C49.8185 24.2964 49.841 24.3276 49.8777 24.3815C49.8805 24.3872 49.8861 24.3957 49.8918 24.4014C49.903 24.4184 49.9143 24.4355 49.9284 24.4553C50.0327 24.6085 50.1905 24.8469 50.3314 25.0653V25.0682C50.4047 25.1788 50.4723 25.2838 50.5287 25.3689C50.5625 25.4229 50.5907 25.4683 50.6161 25.5023C50.6189 25.508 50.6217 25.5108 50.6217 25.5137C50.6273 25.5222 50.633 25.5307 50.6386 25.5392C50.6442 25.5449 50.6471 25.5505 50.6471 25.5534C50.6527 25.5619 50.6555 25.5676 50.6555 25.5676Z" fill="#168843"/>
<path d="M51.4982 24.4071C51.4982 24.4071 51.4982 24.4071 51.4954 24.41V24.4128C51.4954 24.4156 51.4954 24.4156 51.4954 24.4156L51.4926 24.4185C51.4926 24.4213 51.4897 24.4242 51.4869 24.4298C51.4841 24.4355 51.4813 24.4412 51.4756 24.4497C51.4756 24.4525 51.4728 24.4582 51.47 24.4639C51.47 24.4667 51.4672 24.4667 51.4644 24.4695C51.4672 24.4724 51.4644 24.4724 51.4615 24.4752V24.4781H51.4587C51.4615 24.4809 51.4615 24.4809 51.4587 24.4837C51.4559 24.4894 51.4531 24.4951 51.4475 24.5008C51.4503 24.5036 51.4503 24.5036 51.4475 24.5036C51.439 24.5235 51.4277 24.5433 51.4165 24.566C51.4052 24.583 51.3967 24.5972 51.3855 24.6143C51.3855 24.6199 51.3826 24.6256 51.3798 24.6313H51.377C51.377 24.637 51.3742 24.6398 51.3714 24.6426C51.3545 24.671 51.3375 24.6994 51.3206 24.7306C51.3037 24.7561 51.2868 24.7845 51.2699 24.8129C51.0867 25.1023 50.8021 25.491 50.4554 25.752C50.447 25.7634 50.4385 25.7691 50.4272 25.7747C50.4244 25.7804 50.4188 25.7833 50.4132 25.7861C50.4132 25.7861 50.4132 25.7889 50.4103 25.7861V25.7889C50.3962 25.8003 50.3793 25.8088 50.3652 25.8201C50.3624 25.8201 50.3624 25.823 50.3596 25.823C50.2863 25.8741 50.23 25.8996 50.1849 25.9109C50.1849 25.9109 50.1849 25.9109 50.1821 25.9109H50.1792C50.1764 25.9138 50.1708 25.9138 50.168 25.9138C49.9622 25.9478 50.1031 25.5478 50.2497 25.2385C50.2497 25.2356 50.2497 25.2356 50.2497 25.2356C50.2779 25.1732 50.3061 25.1165 50.3314 25.0682V25.0654C50.3765 24.9803 50.416 24.9179 50.4301 24.9008C50.5062 24.8157 51.036 24.3873 51.098 24.3362C51.1572 24.288 51.4615 24.3929 51.4954 24.4071C51.4982 24.4071 51.4982 24.4071 51.4982 24.4071Z" fill="#168843"/>
<path d="M47.2003 20.9086C47.1834 20.9767 47.1552 21.0335 47.1186 21.093V21.0987C47.1158 21.0987 47.1158 21.0987 47.1158 21.0987C47.1186 21.1101 47.1186 21.1101 47.1101 21.1101C47.0256 21.2434 46.91 21.3626 46.8001 21.4562C46.6902 21.5527 46.5831 21.6236 46.5296 21.652H46.5239L46.5211 21.6577C46.5127 21.6577 46.5127 21.6577 46.5127 21.6577C46.3887 21.7031 45.7179 21.7059 45.0838 21.6577C44.7484 21.6293 44.4215 21.5867 44.1932 21.5272C43.5338 21.3512 42.0739 20.9086 41.9245 20.8065C41.8287 20.7384 41.6004 20.1142 41.4567 19.7112C41.9076 19.7198 42.3388 19.7339 42.7503 19.751C44.058 19.9099 45.0753 20.0915 45.6587 20.2049C45.763 20.2248 45.8532 20.2447 45.9293 20.2589C45.9518 20.2645 45.9744 20.2674 45.9913 20.273C45.9941 20.273 45.9969 20.273 45.9969 20.2702H45.9997C46.0054 20.273 46.0082 20.2759 46.011 20.2759C46.011 20.2787 46.0138 20.2787 46.0138 20.2787C46.2421 20.3326 46.4478 20.3638 46.631 20.3752C46.6451 20.3752 46.6564 20.378 46.6677 20.378C46.7776 20.3837 46.879 20.3837 46.9749 20.3724C47.2116 20.5369 47.2539 20.7213 47.2003 20.9086Z" fill="#168843"/>
<path d="M47.795 20.5057C47.7696 20.6617 47.6992 20.8065 47.6033 20.8575C47.5019 20.9143 47.3892 20.9795 47.2708 21.0334V21.0363C47.2201 21.059 47.1693 21.0788 47.1186 21.0987C47.1158 21.0987 47.1158 21.0987 47.1158 21.0987C46.9664 21.1498 46.8058 21.1753 46.6395 21.1498C46.5662 21.1356 46.4873 21.1186 46.4084 21.0987C46.0899 21.0221 45.7546 20.9086 45.6926 20.8575L45.6897 20.8547C45.6108 20.7809 45.4981 20.7071 45.4925 20.6249C45.4925 20.5738 45.7687 20.4035 45.9913 20.273C45.9941 20.273 45.9969 20.273 45.9969 20.2702H45.9998C46.0054 20.273 46.0082 20.2759 46.011 20.2759C46.011 20.2787 46.0138 20.2787 46.0138 20.2787C46.2421 20.3326 46.4479 20.3638 46.631 20.3752C46.6451 20.3752 46.6564 20.378 46.6677 20.378C46.7776 20.3837 46.879 20.3837 46.9749 20.3723C47.0453 20.3695 47.113 20.3581 47.175 20.344C47.2736 20.3269 47.361 20.3014 47.4427 20.2674V20.2645C47.4596 20.2617 47.4737 20.256 47.4878 20.2475C47.5695 20.2106 47.6428 20.168 47.7076 20.1141C47.795 20.1964 47.8175 20.3553 47.795 20.5057Z" fill="#168843"/>
<path d="M47.4427 20.2674C47.4371 20.3014 47.4286 20.3468 47.4173 20.4008V20.4036C47.392 20.5256 47.3582 20.6873 47.3131 20.8632C47.3018 20.92 47.2877 20.9767 47.2708 21.0335V21.0363C47.2341 21.1867 47.1891 21.3314 47.1411 21.4704C47.0763 21.6577 47.0059 21.8251 46.9298 21.9386V21.9414C46.8875 21.9982 46.8452 22.0379 46.8001 22.0578C46.6677 22.1145 45.9011 22.001 44.9514 21.8251C43.3421 21.5272 41.2087 21.0505 40.7831 20.9285C40.3745 20.8065 40.1349 20.554 40.0335 20.3554C39.9658 20.2248 39.9574 20.1199 39.9968 20.0886C40.0448 20.0518 40.2589 19.8702 40.4703 19.6971C40.707 19.6971 40.9381 19.6971 41.1636 19.7056C41.2622 19.7056 41.3609 19.7084 41.4567 19.7113C41.9076 19.7198 42.3388 19.734 42.7503 19.751C44.058 19.9099 45.0754 20.0915 45.6587 20.205C45.763 20.2248 45.8532 20.2447 45.9293 20.2589C45.9518 20.2646 45.9744 20.2674 45.9913 20.2731C45.9941 20.2731 45.9969 20.2731 45.9969 20.2702H45.9997C46.0054 20.2731 46.0082 20.2759 46.011 20.2759C46.011 20.2787 46.0138 20.2787 46.0138 20.2787C46.2421 20.3327 46.4479 20.3639 46.631 20.3752C46.6451 20.3752 46.6564 20.3781 46.6677 20.3781C46.7776 20.3837 46.879 20.3837 46.9749 20.3724C47.0453 20.3695 47.113 20.3582 47.175 20.344C47.2736 20.327 47.361 20.3014 47.4427 20.2674Z" fill="#168843"/>
<path d="M48.0965 20.3979C48.0965 20.4008 48.0937 20.4036 48.0937 20.4064C48.0937 20.4064 48.0937 20.4064 48.0937 20.4093C48.0937 20.4093 48.0937 20.4093 48.0937 20.4121C48.0824 20.4603 48.0683 20.5086 48.0486 20.571V20.5738C47.9697 20.8207 47.8147 21.1498 47.5244 21.2803C47.3018 21.3768 47.2341 21.4449 47.1411 21.4704C47.0791 21.4903 47.0059 21.4875 46.8678 21.4648C46.8452 21.4591 46.8227 21.4563 46.8001 21.4563C46.5155 21.3995 46.4309 21.3456 46.3858 21.2747C46.3746 21.2605 46.3858 21.1924 46.4084 21.0987C46.4563 20.903 46.5606 20.5823 46.631 20.3752C46.6451 20.3752 46.6564 20.3781 46.6677 20.3781C46.7776 20.3837 46.879 20.3837 46.9748 20.3724C47.0453 20.3695 47.1129 20.3582 47.1749 20.344C47.2736 20.327 47.361 20.3014 47.4427 20.2674V20.2646C47.4596 20.2617 47.4737 20.256 47.4878 20.2475C47.5695 20.2107 47.6428 20.1681 47.7076 20.1142C47.8541 20.0064 47.9641 19.8645 48.0402 19.7084C48.0458 19.7198 48.0486 19.734 48.0542 19.751V19.7538C48.1191 19.9553 48.1247 20.2787 48.0965 20.3979Z" fill="#168843"/>
<path d="M47.5019 20.4291C47.4962 20.5993 47.4483 20.7838 47.4089 20.815C47.392 20.8263 47.3581 20.8462 47.3131 20.8632C47.2792 20.8774 47.2426 20.8916 47.2003 20.9086C47.034 20.971 46.817 21.0278 46.6959 20.9795C46.5747 20.937 46.6198 20.6107 46.6677 20.378C46.7776 20.3837 46.879 20.3837 46.9749 20.3723C47.0453 20.3695 47.113 20.3582 47.175 20.344C47.2736 20.3269 47.361 20.3014 47.4427 20.2674V20.2645C47.4596 20.2617 47.4737 20.256 47.4878 20.2475C47.5019 20.3014 47.5047 20.361 47.5019 20.4291Z" fill="#168843"/>
<path d="M35.8117 19.8702C36.0823 19.8389 36.3528 19.8191 36.629 19.8021C36.5783 19.8021 36.5247 19.8077 36.474 19.8162C36.2542 19.8333 36.0343 19.8503 35.8117 19.8702Z" fill="white"/>
<path d="M46.0674 20.3411C46.0674 20.3411 45.9152 20.5539 45.6897 20.8547C45.6785 20.8717 45.6672 20.8916 45.6531 20.9086C45.4868 21.1328 45.2867 21.3966 45.0838 21.6577C45.0387 21.7144 44.9964 21.7712 44.9513 21.8251C44.5483 22.3358 44.1538 22.7955 43.9903 22.8635C43.607 23.0168 40.0786 22.2024 39.7686 22.0748C39.6164 22.0095 37.745 21.5924 36.598 21.1101H36.5952C35.4143 20.6135 35.0029 20.0489 38.0381 19.7368H38.041C38.0494 19.7368 38.0579 19.7339 38.0663 19.7339C39.1204 19.6261 40.0447 19.5722 40.8592 19.5608C40.862 19.558 40.862 19.558 40.8649 19.5608C41.003 19.5694 41.1382 19.5835 41.2735 19.5949C41.7977 19.6403 42.2937 19.6942 42.7503 19.7509C44.058 19.9098 45.0753 20.0914 45.6587 20.2049C45.763 20.2248 45.8532 20.2447 45.9293 20.2588C45.9518 20.2645 45.9744 20.2673 45.9913 20.273C45.9941 20.273 45.9969 20.273 45.9969 20.2702H45.9997C46.0054 20.273 46.0082 20.2759 46.011 20.2759C46.011 20.2787 46.0138 20.2787 46.0138 20.2787L46.0674 20.3411Z" fill="#168843"/>
<path d="M49.8213 21.1243H49.8129C49.7959 21.1157 49.7819 21.1101 49.7649 21.1044C49.7424 21.0959 49.7199 21.0845 49.6945 21.0789C49.6719 21.0675 49.6494 21.0618 49.624 21.0505C49.5057 21.0108 49.3873 20.971 49.2633 20.9341C49.0406 20.8632 48.8067 20.7951 48.5672 20.7242C48.6433 21.4534 48.6884 22.2422 48.6658 23.0395C48.6574 23.3459 48.6405 23.6524 48.6095 23.9588V23.9616C48.6038 24.0184 48.5982 24.0723 48.5925 24.129V24.1319C48.5334 24.6766 48.4375 25.2157 48.2938 25.7378V25.7407C48.2628 25.8542 48.2318 25.962 48.1952 26.0726V26.0755C48.1754 26.1407 48.1529 26.206 48.1303 26.2713C48.1106 26.328 48.0909 26.3819 48.0712 26.4387C48.1134 26.4415 48.1529 26.4415 48.1952 26.4415C48.3135 26.4415 48.446 26.4415 48.5813 26.416H48.6264C48.6461 26.416 48.663 26.4131 48.6799 26.4103H48.6912C48.7025 26.4074 48.7137 26.4046 48.725 26.4046H48.7335C48.7363 26.4046 48.7391 26.4046 48.7447 26.4018H48.7475V26.3989C48.7475 26.3989 48.7504 26.3989 48.7504 26.3961C48.7532 26.3989 48.7532 26.4018 48.7532 26.4018H48.756V26.3989C48.756 26.3989 48.7588 26.3989 48.7588 26.3961C48.7616 26.3989 48.7616 26.4018 48.7616 26.4018L48.7645 26.3989C48.7645 26.3989 48.7673 26.3989 48.7673 26.3961C48.7701 26.3989 48.7701 26.4018 48.7701 26.4018C48.7701 26.4018 48.7701 26.3989 48.7729 26.3961C48.7757 26.3989 48.7757 26.4018 48.7757 26.4018C48.7786 26.4018 48.7814 26.3989 48.7814 26.3961C48.787 26.3961 48.7926 26.3961 48.7983 26.3933C48.8039 26.3933 48.8096 26.3904 48.8152 26.3847C48.8716 26.3847 48.9336 26.3706 48.9899 26.3592L48.9956 26.345L49.3112 25.6527L49.8523 24.4894V24.4837H49.8551V24.4809L49.8918 24.4014V24.3986L50.0101 24.1404C50.0101 24.1404 50.013 24.1404 50.013 24.1375L51.1825 21.6236C50.757 21.4534 50.3004 21.2775 49.8213 21.1243Z" fill="#1E381E"/>
<path d="M52.3916 19.192C52.3634 18.721 52.3239 18.2557 52.2704 17.8017C52.152 16.7859 51.9632 15.8184 51.6955 14.9047C51.6926 14.8905 51.687 14.8792 51.6842 14.865C51.1008 13.1257 50.2722 11.8404 49.376 10.8927C49.1872 10.7168 48.9927 10.5607 48.7955 10.4132H48.7926C48.6827 10.3422 48.5728 10.2741 48.4601 10.206C48.1219 10.0017 47.7668 9.81164 47.3948 9.63289C47.1468 9.51372 46.8931 9.40306 46.631 9.29524C46.3689 9.18742 46.104 9.08527 45.8278 8.9888C45.4135 8.84126 44.988 8.7079 44.5512 8.58589C44.2581 8.50361 43.9621 8.427 43.6578 8.35607C43.5056 8.31918 43.3506 8.28513 43.1984 8.25108C42.7362 8.14894 42.2655 8.05814 41.7836 7.9787H41.7808C41.4623 7.92479 41.1354 7.87655 40.8085 7.82832C40.4759 7.78292 40.1434 7.74036 39.8052 7.70347C39.4698 7.66658 39.1316 7.63254 38.7906 7.60416C28.146 6.67634 14.7818 9.37185 12.406 9.8769V9.92797C12.406 9.92797 12.4088 9.92797 12.4173 9.93649C12.4201 9.93649 12.4229 9.93932 12.4286 9.94216C12.4286 9.945 12.4286 9.945 12.4286 9.945C12.437 9.95918 12.4426 9.95918 12.4511 9.95918L12.4596 9.9677C12.4708 9.97337 12.4793 9.97905 12.4906 9.98472C12.5159 9.99891 12.5413 10.0159 12.5751 10.0386C12.5892 10.05 12.6061 10.0613 12.6258 10.0727C12.6878 10.1124 12.7414 10.1436 12.8062 10.1862C12.809 10.1862 12.8147 10.189 12.8231 10.1947C12.8287 10.1975 12.8372 10.2004 12.8457 10.2004C12.9725 10.2713 13.1078 10.3422 13.2515 10.4132C13.2994 10.4359 13.3473 10.4586 13.398 10.4813C13.5446 10.5465 13.7024 10.6118 13.8659 10.677C13.9222 10.6997 13.9758 10.7196 14.0321 10.7423C14.2351 10.8189 14.4436 10.8927 14.6663 10.9636C14.8861 11.0345 15.1172 11.1055 15.3539 11.1736C15.4723 11.2076 15.5935 11.2417 15.7175 11.2729C15.9655 11.3381 16.2191 11.4034 16.484 11.4658C16.6813 11.5112 16.8842 11.5566 17.0871 11.602C17.2957 11.6474 17.5042 11.69 17.7184 11.7325C18.0031 11.7893 18.2934 11.8432 18.5921 11.8971C18.7387 11.9226 18.8908 11.951 19.0402 11.9766C19.3446 12.0276 19.6518 12.0759 19.9674 12.1241C20.1224 12.1496 20.2831 12.1723 20.4409 12.195C20.6523 12.2262 20.8664 12.2546 21.0834 12.2858C21.5175 12.3426 21.9571 12.3993 22.4024 12.4532C22.625 12.4816 22.8505 12.5071 23.076 12.5327C23.5297 12.5838 23.9863 12.632 24.4456 12.6774H26.3142C26.3142 12.6774 26.7228 12.6774 27.3907 12.6519C27.7825 12.6377 28.2616 12.6121 28.7999 12.5752C28.8788 12.5696 28.9549 12.5639 29.0366 12.5582C29.1944 12.544 29.3579 12.5327 29.5242 12.5185C29.6933 12.5043 29.8623 12.4873 30.0371 12.4703C30.2118 12.4532 30.3894 12.4334 30.5697 12.4135C30.705 12.3993 30.8403 12.3823 30.9784 12.3653C31.3927 12.3142 31.8154 12.2546 32.241 12.1865C32.2691 12.1865 32.3001 12.1837 32.3283 12.178C32.3565 12.1723 32.3847 12.1638 32.4129 12.1553C32.6045 12.1184 32.7962 12.0844 32.9822 12.0503C33.1682 12.0163 33.3542 11.9822 33.5374 11.9539C33.5515 11.9539 33.5684 11.951 33.5796 11.9482C33.5937 11.9425 33.605 11.9397 33.6163 11.9397C33.7431 11.9141 33.8671 11.8971 33.9939 11.8829C38.7934 11.1083 42.7869 11.1934 45.2219 12.9129C45.2219 12.9129 45.2247 12.9129 45.2275 12.9157C45.298 12.9526 46.135 13.4208 46.9354 14.7884V14.7912C47.251 15.3275 47.5554 16.0028 47.8034 16.8483C47.8034 16.8512 47.8063 16.854 47.8063 16.8568C47.8063 16.8625 47.8091 16.8682 47.8119 16.8767C47.8119 16.8767 47.8119 16.8767 47.8147 16.8795C47.8175 16.8795 47.8175 16.8824 47.8175 16.8852C47.8175 16.8852 47.8175 16.8852 47.8175 16.8881C47.8232 16.9051 47.8288 16.9249 47.8344 16.9448C47.8823 17.0838 47.9303 17.2257 47.9725 17.3704C47.9838 17.4073 47.9951 17.4442 48.0035 17.4782C48.0402 17.6087 48.074 17.7393 48.1022 17.8698C48.105 17.884 48.1078 17.901 48.1106 17.9152C48.1275 17.9833 48.1416 18.0514 48.1529 18.1223C48.1529 18.1223 48.1557 18.1337 48.1585 18.1592C48.1614 18.1649 48.1642 18.1734 48.1642 18.1847C48.1642 18.1876 48.1642 18.1876 48.1642 18.1904C48.167 18.1932 48.167 18.1932 48.167 18.1961C48.167 18.1961 48.167 18.1989 48.167 18.2018C48.1698 18.2188 48.1754 18.2386 48.1783 18.2613C48.1839 18.2982 48.1895 18.3323 48.1924 18.3692C48.1924 18.3777 48.1952 18.3834 48.1952 18.3919C48.1952 18.3975 48.1952 18.4004 48.198 18.4032C48.2008 18.4089 48.2008 18.4146 48.2036 18.4202C48.2036 18.4202 48.2036 18.4231 48.2036 18.4259C48.2036 18.4259 48.2036 18.4259 48.2036 18.4287C48.2036 18.4316 48.2064 18.4344 48.2064 18.4401C48.2064 18.4458 48.2093 18.4515 48.2093 18.4571C48.2234 18.5195 48.2346 18.5848 48.2487 18.6501C48.2656 18.7324 48.2825 18.8175 48.2966 18.9026C48.3164 19.0047 48.3361 19.1069 48.3558 19.2147C48.3868 19.3935 48.4178 19.5807 48.446 19.7737C48.4911 20.0744 48.5334 20.3951 48.5672 20.7242C48.6433 21.4534 48.6884 22.2422 48.6658 23.0395C48.6574 23.3459 48.6405 23.6524 48.6095 23.9588V23.9616C48.6038 24.0184 48.5982 24.0723 48.5925 24.129V24.1319C48.5334 24.6767 48.4375 25.2158 48.2938 25.7378V25.7407C48.2628 25.8542 48.2318 25.962 48.1952 26.0726L48.5559 26.2003L48.9956 26.345L49.035 26.3592C49.1449 26.3365 49.2577 26.3053 49.3704 26.2713C49.4296 26.2514 49.4916 26.2315 49.5536 26.2088C49.5987 26.1918 49.6409 26.1748 49.6832 26.1578C49.7706 26.1209 49.8551 26.0783 49.9397 26.0358C49.9819 26.0131 50.0242 25.9904 50.0665 25.9677C50.0693 25.9677 50.075 25.9648 50.0806 25.9591C50.0862 25.9535 50.0947 25.9506 50.0975 25.9506C50.106 25.9478 50.1116 25.945 50.1172 25.9421C50.1229 25.9364 50.1285 25.9336 50.137 25.9279V25.9251C50.1426 25.9251 50.1426 25.9251 50.1482 25.9251C50.1539 25.9251 50.1595 25.9223 50.1651 25.9166C50.1651 25.9166 50.1651 25.9166 50.168 25.9137C50.168 25.9137 50.168 25.9137 50.1708 25.9109H50.182C50.1849 25.9109 50.1849 25.9109 50.1849 25.9109H50.1877V25.9081H50.1905V25.9052L50.199 25.8967C50.2018 25.891 50.2074 25.8882 50.2102 25.8854C50.2131 25.8854 50.2159 25.8854 50.2187 25.8825C50.2187 25.8797 50.2187 25.8797 50.2243 25.8769V25.874C50.2441 25.857 50.2638 25.8428 50.2807 25.8286C50.3371 25.7832 50.385 25.7492 50.4357 25.7095C50.4385 25.7095 50.4385 25.7095 50.4413 25.7095H50.4441C50.447 25.7066 50.447 25.7066 50.4498 25.7066H50.4526C50.4611 25.7009 50.4695 25.6953 50.4752 25.6953V25.6868L50.478 25.6839H50.4808C50.5371 25.6385 50.5766 25.5818 50.6386 25.5392V25.5364H50.6414V25.5335C50.6499 25.5222 50.6555 25.5137 50.664 25.5052C50.6696 25.4995 50.6724 25.4938 50.6781 25.491C50.6809 25.4853 50.6865 25.4825 50.695 25.4768C50.7316 25.4456 50.7682 25.4115 50.8049 25.3775C50.9092 25.2753 51.0078 25.1618 51.1036 25.0342C51.1121 25.0228 51.1205 25.0143 51.1262 25.0058L51.1346 24.9973C51.1374 24.9916 51.1431 24.9888 51.1459 24.9859C51.1515 24.9774 51.1572 24.9689 51.1656 24.9604C51.1825 24.9405 51.1966 24.9207 51.2107 24.9008C51.2164 24.8895 51.222 24.8809 51.2276 24.8724C51.2304 24.8639 51.2389 24.8526 51.2445 24.8441C51.2445 24.8412 51.2445 24.8384 51.2502 24.8355C51.2502 24.8355 51.2502 24.8327 51.253 24.8327C51.2586 24.827 51.2643 24.8214 51.2699 24.8128C51.2784 24.8015 51.284 24.7901 51.2868 24.7816C51.2896 24.7731 51.2953 24.7646 51.3009 24.7561C51.3037 24.7476 51.3094 24.7391 51.315 24.7306H51.3206C51.3375 24.6994 51.3544 24.671 51.3714 24.6426C51.3742 24.6398 51.377 24.6341 51.3798 24.6313C51.3939 24.6142 51.4024 24.6 51.4165 24.5745V24.566C51.4277 24.5433 51.439 24.5234 51.4475 24.5036V24.5007C51.4531 24.4951 51.4559 24.4894 51.4587 24.4837C51.4587 24.4809 51.4615 24.4809 51.4615 24.4809C51.4615 24.4809 51.4615 24.4809 51.4615 24.478V24.4752C51.4644 24.4724 51.4672 24.4724 51.4644 24.4695C51.4672 24.4667 51.47 24.4667 51.47 24.4638C51.4728 24.4582 51.4756 24.4553 51.4785 24.4525V24.4497C51.4813 24.444 51.4841 24.4355 51.4869 24.4298C51.4897 24.4241 51.4925 24.4213 51.4925 24.4184L51.4954 24.4156C51.4954 24.4156 51.4954 24.4156 51.4954 24.4128V24.3986C51.4982 24.3929 51.5038 24.3872 51.5095 24.3816C51.5123 24.3759 51.5151 24.3731 51.5179 24.3702C51.5179 24.3674 51.5207 24.3674 51.5207 24.3645C51.5207 24.3617 51.5235 24.3617 51.5235 24.3589C51.5433 24.3248 51.5602 24.2908 51.5771 24.2567V24.2539C51.594 24.2198 51.6081 24.1886 51.625 24.1574V24.1546C51.6335 24.1375 51.6419 24.1205 51.6475 24.1063C51.6532 24.0978 51.6588 24.0893 51.6616 24.0836C51.6616 24.0836 51.6616 24.0751 51.6673 24.0609V24.0581C51.6673 24.0553 51.6673 24.0553 51.6673 24.0553V24.0524C51.6842 24.0184 51.6983 23.9872 51.7095 23.956C51.7744 23.7971 51.8138 23.6836 51.8223 23.6552L51.8251 23.6495C52.4395 21.913 52.4085 19.7566 52.3916 19.192Z" fill="#1E381E"/>
<path d="M50.2948 19.0586C50.3201 19.3906 50.0919 20.2503 49.8157 21.1186C49.8157 21.1186 49.8157 21.1243 49.8128 21.1243C49.4775 22.2166 49.0773 23.275 49.0773 23.275C49.0773 23.275 48.9195 23.1899 48.6658 23.0395C48.6884 22.2422 48.6433 21.4534 48.5672 20.7242C48.5334 20.395 48.4911 20.0744 48.446 19.7737C48.4178 19.5807 48.3868 19.3935 48.3558 19.2147C48.3361 19.1069 48.3163 19.0047 48.2966 18.9026C48.2825 18.8175 48.2656 18.7323 48.2487 18.6501C48.2346 18.5848 48.2233 18.5195 48.2093 18.4571C48.2093 18.4514 48.2064 18.4458 48.2064 18.4401C48.2064 18.4344 48.2036 18.4316 48.2036 18.4287C48.2036 18.4259 48.2036 18.4259 48.2036 18.4259C48.2008 18.4174 48.2008 18.4117 48.198 18.4032C48.1952 18.4004 48.1952 18.3975 48.1952 18.3919C48.1952 18.3833 48.1923 18.3777 48.1923 18.3692C48.1895 18.3323 48.1839 18.2982 48.1783 18.2613C48.1754 18.2443 48.1726 18.2245 48.1698 18.2074C48.1698 18.2046 48.1698 18.2046 48.167 18.2018C48.167 18.1989 48.167 18.1961 48.167 18.1961C48.167 18.1932 48.167 18.1876 48.1642 18.1847C48.1642 18.1734 48.1613 18.1649 48.1585 18.1592C48.1557 18.1337 48.1529 18.1223 48.1529 18.1223C48.1416 18.0514 48.1275 17.9833 48.1106 17.9152C48.1078 17.901 48.105 17.884 48.1022 17.8698C48.074 17.7393 48.0402 17.6087 48.0035 17.4782C47.9951 17.4442 47.9838 17.4073 47.9725 17.3704C47.9302 17.2257 47.8823 17.0838 47.8344 16.9448C47.8288 16.9249 47.8231 16.9051 47.8175 16.8881C47.8175 16.8852 47.8175 16.8852 47.8175 16.8852C47.8175 16.8824 47.8175 16.8795 47.8147 16.8795C47.8119 16.8767 47.8119 16.8767 47.8119 16.8767C47.8091 16.8682 47.8062 16.8625 47.8062 16.8568C47.8062 16.854 47.8034 16.8512 47.8034 16.8483C47.5554 16.0028 47.251 15.3275 46.9354 14.7912V14.7884C47.313 14.5302 47.8147 14.2067 48.2205 13.9996C48.2205 13.9996 48.2205 13.9968 48.2233 13.9968C48.3051 13.9542 48.3812 13.9173 48.4544 13.8861C48.4544 13.8861 48.4544 13.8833 48.4573 13.8833C48.6658 13.7925 48.8293 13.7556 48.8969 13.8067V13.8095C48.9025 13.8123 48.9082 13.818 48.911 13.8237C48.9364 13.8464 48.9589 13.8861 48.9815 13.9372C48.9955 13.9627 49.0096 13.9911 49.0237 14.0223C49.0519 14.0876 49.0829 14.1642 49.1139 14.255C49.1308 14.2975 49.1449 14.3429 49.1618 14.3912C49.4549 15.248 49.8636 16.8455 50.1003 17.9577H50.1031C50.2102 18.4656 50.2835 18.8714 50.2948 19.0586Z" fill="#1E381E"/>
<path d="M50.4779 25.6754C50.4779 25.6754 50.4751 25.6783 50.4723 25.6839C50.4667 25.6868 50.4554 25.6953 50.4413 25.7095H50.4385C50.3934 25.752 50.3117 25.823 50.1877 25.9052C50.1877 25.9052 50.1848 25.9052 50.182 25.9109C50.182 25.9109 50.182 25.9109 50.1792 25.9109C49.9284 26.0755 49.5169 26.2883 48.942 26.3933H48.9307C48.6743 26.4415 48.384 26.467 48.0599 26.4585C48.0627 26.45 48.0655 26.4443 48.0683 26.4387C48.0881 26.3819 48.1078 26.328 48.1275 26.2713C48.1501 26.206 48.1726 26.1379 48.1923 26.0726C48.229 25.962 48.26 25.8513 48.291 25.7378C48.4347 25.2158 48.5305 24.6738 48.5897 24.129C48.5953 24.0723 48.601 24.0156 48.6066 23.9588C49.0068 23.956 49.5846 23.9787 49.5846 23.9787L49.748 24.2908L49.7706 24.3305L49.8495 24.4837V24.4866L50.2468 25.2356L50.4779 25.6754Z" fill="#1E381E"/>
<path d="M51.8307 23.6495C51.8307 23.6495 51.8307 23.6524 51.8279 23.658C51.8251 23.6666 51.8195 23.6864 51.8082 23.7148C51.7941 23.7545 51.7715 23.8169 51.7405 23.8907C51.7293 23.9106 51.7208 23.9333 51.7095 23.956C51.6983 23.9872 51.6842 24.0184 51.6673 24.0524V24.0553C51.6673 24.0553 51.6673 24.0553 51.6673 24.0581V24.061C51.656 24.0922 51.6391 24.1205 51.625 24.1546V24.1574C51.6081 24.1886 51.594 24.2199 51.5771 24.2539V24.2567C51.5602 24.2908 51.5433 24.3248 51.5235 24.3589C51.5235 24.3617 51.5207 24.3617 51.5207 24.3646C51.5207 24.3674 51.5179 24.3674 51.5179 24.3702C51.5094 24.3816 51.5066 24.3958 51.4982 24.4071C51.4982 24.4071 51.4982 24.4071 51.4954 24.4071V24.4128C51.4954 24.4156 51.4954 24.4156 51.4954 24.4156L51.4925 24.4185C51.4925 24.4213 51.4897 24.4241 51.4869 24.4298C51.4841 24.4355 51.4813 24.444 51.4784 24.4497H51.4756C51.4756 24.4525 51.4728 24.4582 51.47 24.4639C51.47 24.4667 51.4672 24.4667 51.4643 24.4695C51.4672 24.4724 51.4644 24.4724 51.4615 24.4752V24.478H51.4587C51.4615 24.4809 51.4615 24.4809 51.4587 24.4837C51.4559 24.4894 51.4531 24.4951 51.4474 24.5007C51.4503 24.5036 51.4503 24.5036 51.4474 24.5036C51.4277 24.5405 51.408 24.5745 51.3854 24.6142C51.3826 24.6199 51.3798 24.6256 51.377 24.6313C51.3573 24.6596 51.3403 24.688 51.3206 24.7192C51.3206 24.7221 51.3178 24.7277 51.315 24.7306C51.3093 24.7391 51.3037 24.7476 51.3009 24.7561C51.2953 24.7646 51.2896 24.7731 51.2868 24.7816C51.2727 24.7987 51.2614 24.8157 51.253 24.8327C51.2502 24.8327 51.2502 24.8356 51.2502 24.8356C51.2445 24.8384 51.2445 24.8412 51.2445 24.8441C51.2389 24.8526 51.2304 24.8639 51.2276 24.8724C51.2051 24.9008 51.1853 24.9292 51.1656 24.9604C51.1572 24.9689 51.1515 24.9774 51.1459 24.9859C51.0923 25.0625 51.0332 25.142 50.9712 25.2158C50.9035 25.2981 50.8331 25.3803 50.7598 25.4598C50.7288 25.4967 50.695 25.5307 50.6583 25.5648C50.6583 25.5676 50.6583 25.5676 50.6583 25.5676C50.6583 25.5676 50.6583 25.5676 50.6555 25.5704C50.6527 25.5733 50.6499 25.5761 50.6471 25.579C50.6414 25.5846 50.6386 25.5903 50.6301 25.596C50.6245 25.6017 50.6189 25.6073 50.6104 25.6158C50.5879 25.6357 50.5597 25.6641 50.5231 25.6924C50.5061 25.7066 50.4892 25.7237 50.4695 25.7378C50.4639 25.7435 50.461 25.7464 50.4554 25.752C50.447 25.7634 50.4385 25.7691 50.4272 25.7747C50.4244 25.7804 50.4188 25.7832 50.4131 25.7861C50.4131 25.7861 50.4131 25.7889 50.4103 25.7861V25.7889C50.4075 25.7918 50.4019 25.7946 50.3962 25.8003C50.3342 25.8513 50.2694 25.8996 50.2018 25.9421C50.1679 25.9677 50.1341 25.9904 50.0975 26.0102C49.9594 26.0982 49.8128 26.172 49.6578 26.2315C49.6071 26.2514 49.5536 26.2713 49.5 26.2883H49.4972C49.4916 26.2911 49.4831 26.294 49.4747 26.2968C49.469 26.2996 49.4634 26.2996 49.4577 26.3025C49.4211 26.311 49.3845 26.3223 49.3478 26.3309C49.345 26.3309 49.3394 26.3309 49.3366 26.3337C49.2971 26.3422 49.2576 26.3507 49.2182 26.3564C49.1759 26.3649 49.1308 26.3734 49.0885 26.3791C49.0406 26.3848 48.9927 26.3904 48.9448 26.3933H48.9335C48.9307 26.3933 48.9307 26.3933 48.9279 26.3933C48.8744 26.399 48.8236 26.4018 48.7757 26.4018C48.7729 26.4018 48.7729 26.4018 48.7701 26.4018H48.7616C48.7588 26.4018 48.7588 26.4018 48.756 26.4018H48.7532C48.7504 26.4018 48.7475 26.4046 48.7447 26.4018C48.7391 26.4046 48.7363 26.4046 48.7334 26.4046H48.7081C48.5841 26.4046 48.4826 26.3961 48.4009 26.3848C48.3473 26.3734 48.3023 26.3621 48.2628 26.3507C48.2431 26.3422 48.2262 26.3365 48.2093 26.328C48.1923 26.3195 48.1782 26.311 48.1642 26.2996C48.1529 26.2911 48.1388 26.2826 48.1303 26.2713C48.1529 26.206 48.1754 26.1408 48.1952 26.0755V26.0727C48.2318 25.962 48.2628 25.8542 48.2938 25.7407V25.7378C48.3333 25.6924 48.3727 25.6499 48.4206 25.6045L48.4685 25.5563C48.6968 25.3349 48.9617 25.1306 49.0942 25.0228C49.1393 24.9859 49.1675 24.9604 49.1759 24.9491V24.9462C49.2041 24.881 49.4944 24.5745 49.7734 24.3305C49.7847 24.322 49.7931 24.3135 49.8044 24.305C49.8044 24.3021 49.8072 24.2993 49.8072 24.2993H49.81L49.8128 24.2965C49.8805 24.2397 49.9481 24.1858 50.0101 24.1404C50.0101 24.1404 50.0129 24.1404 50.0129 24.1376C50.0355 24.1262 50.0524 24.112 50.0721 24.0978C50.1229 24.0666 50.199 24.0326 50.2948 24.0014C50.3145 23.9929 50.3342 23.9872 50.354 23.9815C50.3737 23.973 50.3962 23.9673 50.416 23.9616C50.5963 23.9049 50.8161 23.851 51.0275 23.8056C51.067 23.7971 51.1064 23.7886 51.1459 23.7801C51.1712 23.7744 51.1966 23.7687 51.2192 23.7659C51.2671 23.7545 51.315 23.746 51.3601 23.7375C51.6024 23.6893 51.7913 23.6552 51.8251 23.6495C51.8279 23.6495 51.8307 23.6495 51.8307 23.6495Z" fill="#1E381E"/>
<path d="M50.6583 25.5647C50.6583 25.5676 50.6583 25.5676 50.6583 25.5647C50.6583 25.5676 50.6583 25.5676 50.6555 25.5704C50.6527 25.5733 50.6499 25.5761 50.6471 25.5789C50.6414 25.5846 50.6386 25.5903 50.6302 25.596C50.6245 25.6016 50.6189 25.6073 50.6104 25.6158C50.5879 25.6357 50.5597 25.664 50.5231 25.6924C50.5062 25.7066 50.4892 25.7236 50.4695 25.7378C50.4639 25.7435 50.4611 25.7463 50.4554 25.752C50.447 25.7634 50.4385 25.769 50.4272 25.7747C50.4244 25.7804 50.4188 25.7832 50.4132 25.7861C50.4132 25.7861 50.4132 25.7889 50.4103 25.7861V25.7889C50.4075 25.7917 50.4019 25.7946 50.3962 25.8002C50.3878 25.8059 50.3765 25.8116 50.3652 25.8201C50.3624 25.8201 50.3624 25.8229 50.3596 25.8229C50.1651 25.9705 49.8749 26.1492 49.5 26.2854V26.2883H49.4972C49.4916 26.2911 49.4831 26.2939 49.4747 26.2968C49.469 26.2996 49.4634 26.2996 49.4578 26.3025C49.4014 26.3223 49.3422 26.3422 49.283 26.3592C49.2126 26.3819 49.1421 26.3989 49.066 26.416C49.0604 26.4188 49.0576 26.4188 49.0519 26.4188C48.9843 26.4358 48.9167 26.4472 48.8462 26.4585C48.7447 26.4755 48.6405 26.4897 48.5305 26.4954C48.4432 26.5039 48.3502 26.5067 48.2572 26.5067C48.1895 26.5067 48.1191 26.5039 48.0458 26.5011C48.0514 26.4869 48.0571 26.4727 48.0627 26.4585C48.0655 26.45 48.0684 26.4472 48.0684 26.4415H48.0712V26.4387C48.0909 26.3819 48.1106 26.328 48.1304 26.2712C48.1529 26.206 48.1754 26.1407 48.1952 26.0755V26.0726C48.2318 25.962 48.2628 25.8542 48.2938 25.7407V25.7378C48.4375 25.2157 48.5334 24.6766 48.5926 24.1319V24.129C48.9815 24.1744 49.5649 24.2681 49.7509 24.2908C49.7903 24.2964 49.81 24.2993 49.8129 24.2964V24.2993C49.8185 24.2964 49.841 24.3276 49.8777 24.3816C49.8833 24.3872 49.8861 24.3929 49.8918 24.3986V24.4014C49.9059 24.4184 49.9171 24.4355 49.9284 24.4553C50.0327 24.6085 50.1905 24.8469 50.3314 25.0654V25.0682C50.4047 25.1789 50.4723 25.2838 50.5287 25.369C50.5653 25.4229 50.5935 25.4683 50.6161 25.5023C50.6189 25.508 50.6217 25.5108 50.6217 25.5137C50.6302 25.5222 50.633 25.5307 50.6386 25.5364V25.5392C50.6442 25.5449 50.6471 25.5506 50.6471 25.5534C50.6527 25.5591 50.6555 25.5619 50.6583 25.5647Z" fill="#1E381E"/>
<path d="M51.4982 24.4071C51.4982 24.4071 51.4982 24.4071 51.4954 24.41V24.4128C51.4954 24.4156 51.4954 24.4156 51.4954 24.4156L51.4926 24.4185C51.4926 24.4213 51.4897 24.4242 51.4869 24.4298C51.4841 24.4355 51.4813 24.4412 51.4756 24.4497C51.4756 24.4525 51.4728 24.4582 51.47 24.4639C51.47 24.4667 51.4672 24.4667 51.4644 24.4695C51.4672 24.4724 51.4644 24.4724 51.4615 24.4752V24.4781H51.4587C51.4615 24.4809 51.4615 24.4809 51.4587 24.4837C51.4559 24.4894 51.4531 24.4951 51.4475 24.5008C51.4503 24.5036 51.4503 24.5036 51.4475 24.5036C51.439 24.5235 51.4277 24.5433 51.4165 24.566C51.4052 24.583 51.3967 24.5972 51.3855 24.6143C51.3855 24.6199 51.3826 24.6256 51.3798 24.6313H51.377C51.377 24.637 51.3742 24.6398 51.3714 24.6426C51.3545 24.671 51.3375 24.6994 51.3206 24.7306C51.3037 24.7561 51.2868 24.7845 51.2699 24.8129C51.0867 25.1023 50.8021 25.491 50.4554 25.752C50.447 25.7634 50.4385 25.7691 50.4272 25.7747C50.4244 25.7804 50.4188 25.7833 50.4132 25.7861C50.4132 25.7861 50.4132 25.7889 50.4103 25.7861V25.7889C50.3962 25.8003 50.3793 25.8088 50.3652 25.8201C50.3624 25.8201 50.3624 25.823 50.3596 25.823C50.2863 25.8741 50.23 25.8996 50.1849 25.9109C50.1849 25.9109 50.1849 25.9109 50.1821 25.9109H50.1792C50.1764 25.9138 50.1708 25.9138 50.168 25.9138C49.9622 25.9478 50.1031 25.5478 50.2497 25.2385C50.2497 25.2356 50.2497 25.2356 50.2497 25.2356C50.2779 25.1732 50.3061 25.1165 50.3314 25.0682V25.0654C50.3765 24.9803 50.416 24.9179 50.4301 24.9008C50.5062 24.8157 51.036 24.3873 51.098 24.3362C51.1572 24.288 51.4615 24.3929 51.4954 24.4071C51.4982 24.4071 51.4982 24.4071 51.4982 24.4071Z" fill="#1E381E"/>
<path d="M41.2735 19.5949C41.2481 19.6233 41.2115 19.6574 41.1664 19.7028C41.1664 19.7028 41.1664 19.7028 41.1636 19.7056C40.9325 19.9212 40.459 20.3156 40.0335 20.3554C39.8475 20.3724 38.458 20.676 36.598 21.1101H36.5952C32.489 22.0606 26.083 23.6297 25.2657 24.1092C24.0793 24.8044 16.3431 31.5999 16.3431 31.2736C16.3431 30.9473 14.3957 27.2019 14.3957 27.2019C14.5169 27.0657 14.6381 26.9324 14.7649 26.8019C14.7987 26.765 14.8325 26.7309 14.8692 26.6941C14.9903 26.5664 15.1143 26.4444 15.2412 26.3224C15.3595 26.2089 15.4779 26.0954 15.5991 25.9847C15.7062 25.8882 15.8133 25.7918 15.9232 25.6953L16.1853 25.474C16.1853 25.474 16.1853 25.474 16.1881 25.474C22.9519 19.8588 33.9488 19.3594 38.8357 19.4446H38.8921C39.5769 19.4701 40.2364 19.5098 40.8592 19.5609C40.862 19.5581 40.862 19.5581 40.8648 19.5609C41.0029 19.5694 41.1382 19.5836 41.2735 19.5949Z" fill="#168843"/>
<path d="M47.8183 16.8867C47.8183 16.8867 47.8183 16.8867 47.8183 16.8897C47.8153 16.8837 47.8153 16.8807 47.8123 16.8778C47.8093 16.8688 47.8062 16.8628 47.8062 16.8569C47.8123 16.8658 47.8153 16.8748 47.8183 16.8867Z" fill="white"/>
<path d="M51.8251 23.6495C51.8279 23.6495 51.8307 23.6495 51.8307 23.6495C51.8307 23.6495 51.8307 23.6524 51.8279 23.658C51.8251 23.6666 51.8195 23.6864 51.8082 23.7148C51.7941 23.7545 51.7716 23.8169 51.7406 23.8907C51.7208 23.9389 51.6955 23.9928 51.6673 24.0524V24.0553C51.6673 24.0553 51.6673 24.0553 51.6673 24.0581V24.0609C51.6616 24.0751 51.6616 24.0836 51.6616 24.0836C51.6588 24.0893 51.6532 24.0978 51.6476 24.1063C51.6419 24.1205 51.6335 24.1376 51.625 24.1546V24.1574C51.6081 24.1886 51.594 24.2198 51.5771 24.2539V24.2567C51.5602 24.2908 51.5433 24.3248 51.5236 24.3589C51.5236 24.3617 51.5207 24.3617 51.5207 24.3645C51.5207 24.3674 51.5179 24.3674 51.5179 24.3702C51.5151 24.3731 51.5123 24.3759 51.5095 24.3816C51.5066 24.3901 51.5038 24.3986 51.4982 24.4071C51.4982 24.4071 51.4982 24.4071 51.4954 24.4099V24.4128C51.4954 24.4156 51.4954 24.4156 51.4954 24.4156C51.4925 24.427 51.4869 24.4355 51.4785 24.4497V24.4525C51.4756 24.4553 51.4728 24.4582 51.47 24.4639C51.47 24.4667 51.4672 24.4667 51.4644 24.4695C51.4672 24.4724 51.4644 24.4724 51.4615 24.4752V24.478C51.4615 24.4809 51.4615 24.4809 51.4615 24.4809C51.4615 24.4809 51.4587 24.4809 51.4587 24.4837C51.4559 24.4894 51.4531 24.4951 51.4475 24.5007V24.5036C51.439 24.5234 51.4277 24.5433 51.4165 24.566V24.5745C51.4024 24.6 51.3939 24.6142 51.3798 24.6313C51.377 24.6341 51.3742 24.6398 51.3714 24.6426C51.3545 24.671 51.3375 24.6994 51.3206 24.7306C51.3037 24.7561 51.2868 24.7845 51.2699 24.8129C51.0867 25.1023 50.8021 25.491 50.4554 25.752C50.447 25.7577 50.4357 25.7662 50.4272 25.7747C50.4244 25.7804 50.4188 25.7832 50.4132 25.7861H50.4103V25.7889C50.4075 25.7917 50.4019 25.7946 50.3962 25.8003C50.3342 25.8513 50.2694 25.8996 50.2018 25.9421C50.168 25.9677 50.1341 25.9904 50.0975 26.0102C49.9594 26.0982 49.8129 26.172 49.6579 26.2315C49.6184 26.2457 49.5789 26.2628 49.5395 26.2741C49.5282 26.2798 49.5141 26.2854 49.5 26.2883H49.4972C49.4916 26.2911 49.4831 26.294 49.4747 26.2968C49.469 26.2996 49.4634 26.2996 49.4578 26.3025C49.4014 26.3223 49.3422 26.3422 49.283 26.3592C49.2126 26.3819 49.1421 26.3989 49.066 26.416C49.0604 26.4188 49.0576 26.4188 49.0519 26.4188C48.9843 26.4358 48.9167 26.4472 48.8462 26.4585C48.7447 26.4756 48.6405 26.4897 48.5305 26.4954C48.4432 26.5039 48.3502 26.5068 48.2572 26.5068C48.1895 26.5068 48.1191 26.5039 48.0458 26.5011C47.826 26.4897 47.5921 26.4614 47.3469 26.4046C47.2651 26.3876 47.1919 26.3649 47.1242 26.345C47.0566 26.3308 46.9918 26.3167 46.9213 26.2968C46.9213 26.2968 46.9185 26.2996 46.9157 26.2968C46.91 26.294 46.9044 26.294 46.8988 26.294H46.8875C46.8762 26.2883 46.8678 26.2883 46.8593 26.2883C46.8283 26.2883 46.7973 26.2741 46.7579 26.2571C46.741 26.2514 46.724 26.2486 46.7071 26.2429C46.6818 26.2429 46.6536 26.2429 46.631 26.2259C46.6226 26.2259 46.6226 26.2259 46.6141 26.2259L44.1876 25.7265L44.0129 25.6953C43.9142 25.6726 43.8156 25.6499 43.7169 25.6272C46.2083 25.4683 47.3863 24.1035 47.9162 22.5798C47.9923 22.3642 48.0543 22.1457 48.105 21.9244C48.2064 21.4903 48.2628 21.0562 48.291 20.6419C48.3558 19.7084 48.2713 18.8912 48.2093 18.4571C48.2093 18.4515 48.2064 18.4458 48.2064 18.4401C48.2064 18.4344 48.2036 18.4316 48.2036 18.4288C48.2036 18.4259 48.2036 18.4259 48.2036 18.4259C48.2036 18.4231 48.2036 18.4202 48.2036 18.4202C48.2008 18.3919 48.1952 18.3635 48.1924 18.3351C48.1867 18.3096 48.1811 18.2841 48.1783 18.2614C48.1754 18.2387 48.1698 18.2188 48.167 18.2018C48.167 18.1989 48.167 18.1961 48.167 18.1961C48.167 18.1933 48.167 18.1933 48.1642 18.1904C48.1642 18.1876 48.1642 18.1876 48.1642 18.1847C48.1642 18.1734 48.1614 18.1649 48.1585 18.1592C48.1557 18.1337 48.1529 18.1223 48.1529 18.1223C48.1529 18.1223 48.1557 18.1223 48.1585 18.1223C48.2431 18.1138 49.0998 18.0372 50.1003 17.9578H50.1031C50.8303 17.8982 51.6278 17.8386 52.2704 17.8017C52.3239 18.2557 52.3634 18.721 52.3916 19.192C52.4085 19.7566 52.4395 21.9131 51.8251 23.6495Z" fill="#1E381E"/>
<path d="M46.0006 20.2702C46.01 20.2764 46.0162 20.2795 46.0162 20.2795C46.01 20.2795 46.0006 20.2764 45.9913 20.2733C45.9944 20.2733 45.9975 20.2733 46.0006 20.2702Z" fill="white"/>
<path d="M46.0131 20.2764C46.0069 20.2764 46.0006 20.2733 45.9913 20.2733C45.9944 20.2733 45.9975 20.2733 45.9975 20.2702H46.0006C46.0069 20.2733 46.01 20.2764 46.0131 20.2764Z" fill="#F9F9FA"/>
<path d="M42.8628 53.7936C42.8544 53.7823 42.8432 53.7682 42.832 53.7569C42.832 53.7569 42.8432 53.7682 42.8628 53.7936Z" fill="#1E381E"/>
<path d="M38.3707 72.1374C35.5834 72.6964 32.4157 73 28.8703 73C26.7002 73 24.4682 72.8553 22.3066 72.5971C22.0473 72.5715 21.788 72.5261 21.5287 72.4836C21.3258 72.4524 21.1285 72.4268 20.9313 72.3956C20.6889 72.3559 20.4352 72.3077 20.176 72.2679C19.942 72.2254 19.7053 72.18 19.4855 72.1544C19.4066 72.1374 19.3361 72.1232 19.2657 72.109C18.9585 72.0353 18.6597 71.9785 18.3779 71.9218C18.3215 71.9076 18.268 71.8962 18.206 71.8821C15.399 71.2153 13.6855 70.2648 12.6653 69.4618C39.5177 73.0567 43.793 62.0534 44.1707 60.8447C44.1932 60.7567 44.2017 60.7312 44.2017 60.7312C44.4469 60.0247 44.5709 59.2756 44.5709 58.4868C44.5709 57.3433 44.3595 56.3134 43.9114 55.3742C45.7094 58.5606 48.2233 65.8895 38.3707 72.1374Z" fill="#1E381E"/>
</g>
<defs>
<clipPath id="clip0_136_116">
<rect width="54.0741" height="73" fill="white"/>
</clipPath>
</defs>
</svg>
